<svg xmlns="http://www.w3.org/2000/svg" viewBox="0 0 400 400"><defs><style>.cls-1{fill:none;}.cls-2{fill:#787878;}</style></defs><g id="Layer_2" data-name="Layer 2"><g id="Layer_1-2" data-name="Layer 1"><rect class="cls-1" width="400" height="400"/><rect class="cls-2" x="333.15" y="118.59" width="15.66" height="3" rx="1.5" transform="translate(-14.36 186.58) rotate(-30)"/><rect class="cls-2" x="274.13" y="59.16" width="15.66" height="3" rx="1.5" transform="translate(88.45 274.52) rotate(-60)"/><rect class="cls-2" x="51.51" y="118.48" width="15.66" height="3" rx="1.5" transform="translate(50.74 253.55) rotate(-150)"/><rect class="cls-2" x="110.52" y="59.05" width="15.66" height="3" rx="1.5" transform="matrix(-0.5, -0.87, 0.87, -0.5, 125.09, 193.33)"/><rect class="cls-2" x="273.86" y="340.79" width="15.66" height="3" rx="1.5" transform="translate(126.11 757.38) rotate(-120)"/><rect class="cls-2" x="332.92" y="281.32" width="15.66" height="3" rx="1.5" transform="translate(494.44 698.13) rotate(-150)"/><rect class="cls-2" x="111.11" y="340.78" width="15.66" height="3" rx="1.5" transform="translate(-236.95 274.14) rotate(-60)"/><rect class="cls-2" x="52.05" y="281.32" width="15.66" height="3" rx="1.5" transform="translate(-133.39 67.83) rotate(-30)"/><path class="cls-2" d="M185.06,35.18V31.67h7.34V56.24h-4.05V35.18Z"/><path class="cls-2" d="M200.16,51q3.39-2.79,5.35-4.6a21.15,21.15,0,0,0,3.26-3.75,7,7,0,0,0,1.31-3.91,4.64,4.64,0,0,0-1-3.17,4,4,0,0,0-3.16-1.15,4.17,4.17,0,0,0-3.23,1.27,5.08,5.08,0,0,0-1.21,3.38h-3.88A7.73,7.73,0,0,1,200,33.2a8.6,8.6,0,0,1,5.88-2,8.45,8.45,0,0,1,6,2,7,7,0,0,1,2.17,5.39,9.25,9.25,0,0,1-1.29,4.67,18.91,18.91,0,0,1-3.06,4q-1.78,1.77-4.54,4.09l-1.59,1.35h11.19v3.2H197.62V53.1Z"/><path class="cls-2" d="M35.75,209.59a5.09,5.09,0,0,0,3.14.88,4,4,0,0,0,3.67-1.89c.78-1.26,1.17-3.4,1.17-6.44a5.36,5.36,0,0,1-2.38,1.77,8.75,8.75,0,0,1-3.34.63,9.44,9.44,0,0,1-4.16-.9,6.78,6.78,0,0,1-3-2.66,8.18,8.18,0,0,1-1.07-4.29,7.88,7.88,0,0,1,2.27-5.92,8.63,8.63,0,0,1,6.26-2.21q4.8,0,6.83,3.05c1.35,2,2,5.15,2,9.35a27.32,27.32,0,0,1-.76,7.11,7.45,7.45,0,0,1-2.63,4.18,8.35,8.35,0,0,1-5.18,1.42,8.25,8.25,0,0,1-5.82-1.89,7.07,7.07,0,0,1-2.3-4.75h3.71A4.11,4.11,0,0,0,35.75,209.59Zm6.3-9.55a4.63,4.63,0,0,0,1.22-3.35A4.94,4.94,0,0,0,42,193.06a4.74,4.74,0,0,0-3.51-1.29A4.65,4.65,0,0,0,35,193.1a5.28,5.28,0,0,0,0,6.87,5,5,0,0,0,3.8,1.33A4.41,4.41,0,0,0,42.05,200Z"/><path class="cls-2" d="M356.5,190.32a9.5,9.5,0,0,1,5.91-1.76,10,10,0,0,1,4.27.85,6.2,6.2,0,0,1,2.72,2.29,6,6,0,0,1,.91,3.27,5.59,5.59,0,0,1-1.16,3.57,5.65,5.65,0,0,1-2.79,2v.13a6,6,0,0,1,3.25,2.21,6.76,6.76,0,0,1,1.16,4.09,6.56,6.56,0,0,1-.95,3.54,6.41,6.41,0,0,1-2.82,2.44,10.26,10.26,0,0,1-4.48.9,10.06,10.06,0,0,1-6.26-1.87,6.82,6.82,0,0,1-2.63-5.38h3.88a4.11,4.11,0,0,0,1.45,2.92,5.2,5.2,0,0,0,3.52,1.12,4.59,4.59,0,0,0,3.32-1.12,3.89,3.89,0,0,0,1.16-2.92,3.65,3.65,0,0,0-1.57-3.35,9.18,9.18,0,0,0-4.81-1h-.92v-3.16h.95a9,9,0,0,0,4.36-.91,3,3,0,0,0,1.5-2.77,3.28,3.28,0,0,0-1.09-2.57,4.58,4.58,0,0,0-3.11-1,4.5,4.5,0,0,0-3.07,1,3.81,3.81,0,0,0-1.3,2.37H354A6.33,6.33,0,0,1,356.5,190.32Z"/><path class="cls-2" d="M203.23,349.15a4.6,4.6,0,0,0-2.85-.78,4.69,4.69,0,0,0-4.17,2q-1.38,2-1.44,6.76a5.94,5.94,0,0,1,2.68-2.29,9,9,0,0,1,3.81-.81,8.54,8.54,0,0,1,4.11,1,6.83,6.83,0,0,1,2.78,2.78,8.73,8.73,0,0,1,1,4.34,8.93,8.93,0,0,1-1,4.22,7.08,7.08,0,0,1-2.88,2.91,9.23,9.23,0,0,1-4.58,1.06,9.41,9.41,0,0,1-5.7-1.53,8,8,0,0,1-2.89-4.33,24.65,24.65,0,0,1-.83-7q0-12.33,9.1-12.33A8,8,0,0,1,206,347a7.13,7.13,0,0,1,2.38,4.48h-3.71A4,4,0,0,0,203.23,349.15Zm-6.51,9.38a4.34,4.34,0,0,0-1.5,3.56,4.93,4.93,0,0,0,1.4,3.69,5.34,5.34,0,0,0,3.9,1.36,4.71,4.71,0,0,0,3.51-1.31,4.84,4.84,0,0,0,1.28-3.51,5.17,5.17,0,0,0-1.25-3.65,4.74,4.74,0,0,0-3.68-1.37A5.58,5.58,0,0,0,196.72,358.53Z"/></g></g></svg>
